<?xml version="1.0" encoding="UTF-8" standalone="no"?>
<!-- Created with Inkscape (http://www.inkscape.org/) -->

<svg
   width="108.9746mm"
   height="52.549927mm"
   viewBox="0 0 108.9746 52.549927"
   version="1.1"
   id="svg1"
   xml:space="preserve"
   inkscape:version="1.4.2 (ebf0e940, 2025-05-08)"
   sodipodi:docname="vcat.svg"
   xmlns:inkscape="http://www.inkscape.org/namespaces/inkscape"
   xmlns:sodipodi="http://sodipodi.sourceforge.net/DTD/sodipodi-0.dtd"
   xmlns="http://www.w3.org/2000/svg"
   xmlns:svg="http://www.w3.org/2000/svg"><sodipodi:namedview
     id="namedview1"
     pagecolor="#ffffff"
     bordercolor="#000000"
     borderopacity="0.25"
     inkscape:showpageshadow="2"
     inkscape:pageopacity="0.0"
     inkscape:pagecheckerboard="0"
     inkscape:deskcolor="#d1d1d1"
     inkscape:document-units="mm"
     inkscape:zoom="0.96105813"
     inkscape:cx="265.85281"
     inkscape:cy="1165.9024"
     inkscape:window-width="1680"
     inkscape:window-height="1050"
     inkscape:window-x="0"
     inkscape:window-y="0"
     inkscape:window-maximized="0"
     inkscape:current-layer="layer1"><inkscape:page
       x="6.4303422e-06"
       y="1.3514633e-08"
       width="108.9746"
       height="52.549927"
       id="page1"
       margin="0"
       bleed="0" /></sodipodi:namedview><defs
     id="defs1" /><g
     inkscape:label="Layer 1"
     inkscape:groupmode="layer"
     id="layer1"
     transform="translate(6.3776808,-305.83706)"><g
       id="g33"
       transform="translate(14.80171,-49.347958)"
       inkscape:export-filename="vcat_logo_dark.svg"
       inkscape:export-xdpi="300"
       inkscape:export-ydpi="300"><rect
         style="fill:none;fill-opacity:1;stroke:none;stroke-width:0.260398;stroke-opacity:0.996078"
         id="rect8-00-5"
         width="106.24694"
         height="52.549938"
         x="-21.179405"
         y="355.185"
         inkscape:export-filename="vcat_logo.svg"
         inkscape:export-xdpi="300"
         inkscape:export-ydpi="300" /><path
         d="m 13.570879,362.13494 c 0,0 -3.7930671,1.89654 -7.5861337,1.89654 -3.7930666,0 -7.5861333,-1.89654 -7.5861333,-1.89654 l 7.5861333,18.288 z"
         fill="url(#red)"
         stroke="#870200"
         id="path5-8"
         style="fill:#ff0000;fill-opacity:1;stroke:#808080;stroke-width:0.270933" /><path
         d="m -2.5496546,362.54134 c 0,0 -1.3546667,4.064 -4.064,6.77334 -2.5738666,2.57386 -6.6378664,3.92853 -6.6378664,3.92853 l 18.2879996,7.58613 z"
         fill="url(#white)"
         stroke="#bdbdbd"
         id="path6-1"
         style="fill:#ffffff;stroke-width:0.270933" /><path
         d="m 25.627413,389.36374 c 0,0 -1.896533,-3.79306 -1.896533,-7.58613 0,-3.79307 1.896533,-7.58613 1.896533,-7.58613 l -18.2880011,7.58613 z"
         fill="url(#red)"
         stroke="#870200"
         id="path3-20-7"
         style="fill:#ff0000;stroke:#808080;stroke-width:0.270933" /><path
         d="m 25.221013,373.24321 c 0,0 -4.064,-1.35467 -6.773333,-4.064 -2.573867,-2.57387 -3.928534,-6.63787 -3.928534,-6.63787 l -7.5861341,18.288 z"
         fill="url(#white)"
         stroke="#bdbdbd"
         id="path4-13"
         style="fill:#ffffff;stroke-width:0.270933" /><path
         d="m -1.601388,401.42028 c 0,0 3.7930667,-1.89654 7.5861333,-1.89654 3.7930666,0 7.5861337,1.89654 7.5861337,1.89654 l -7.5861337,-18.288 z"
         fill="url(#red)"
         stroke="#870200"
         id="path1-2-0"
         style="fill:#ff0000;fill-opacity:1;stroke:#808080;stroke-width:0.270933" /><path
         d="m 14.519146,401.01388 c 0,0 1.354667,-4.064 4.064,-6.77334 2.573867,-2.57386 6.637867,-3.92853 6.637867,-3.92853 L 6.9330119,382.72588 Z"
         fill="url(#white)"
         stroke="#bdbdbd"
         id="path2-8"
         style="fill:#ffffff;stroke-width:0.270933" /><path
         d="m -13.657921,374.19148 c 0,0 1.896533,3.79306 1.896533,7.58613 0,3.79307 -1.896533,7.58613 -1.896533,7.58613 l 18.2879996,-7.58613 z"
         fill="url(#red)"
         stroke="#870200"
         id="path7-5"
         style="fill:#ff0000;fill-opacity:1;stroke:#808080;stroke-width:0.270933" /><path
         d="m -13.251521,390.31201 c 0,0 4.0639998,1.35467 6.7733331,4.064 2.5738666,2.57387 3.9285333,6.63787 3.9285333,6.63787 l 7.5861332,-18.288 z"
         fill="url(#white)"
         stroke="#bdbdbd"
         id="path8-6"
         style="fill:#ffffff;stroke-width:0.270933" /><text
         xml:space="preserve"
         style="font-size:25.4px;line-height:1;font-family:Arial;-inkscape-font-specification:'Arial, Normal';text-align:center;writing-mode:lr-tb;direction:ltr;text-anchor:middle;fill:#bdbdbd;fill-opacity:1;stroke:#b5b5b5;stroke-width:0.3;stroke-opacity:0.996078"
         x="57.887249"
         y="389.94449"
         id="text8-4"><tspan
           id="tspan8-3"
           x="61.415718"
           y="389.94449"
           style="font-style:normal;font-variant:normal;font-weight:300;font-stretch:normal;font-size:25.4px;font-family:'Nunito Sans';-inkscape-font-specification:'Nunito Sans Light';fill:#bdbdbd;fill-opacity:1;stroke:#b5b5b5;stroke-width:0.3;stroke-opacity:0.996078">vcat  </tspan></text></g></g></svg>
