<?xml version="1.0" encoding="UTF-8" standalone="no"?>
<!-- Created with Inkscape (http://www.inkscape.org/) -->

<svg
   width="39.852551mm"
   height="39.852558mm"
   viewBox="0 0 39.852551 39.852558"
   version="1.1"
   id="svg1"
   xml:space="preserve"
   inkscape:version="1.4.2 (ebf0e940, 2025-05-08)"
   sodipodi:docname="vcat.svg"
   xmlns:inkscape="http://www.inkscape.org/namespaces/inkscape"
   xmlns:sodipodi="http://sodipodi.sourceforge.net/DTD/sodipodi-0.dtd"
   xmlns="http://www.w3.org/2000/svg"
   xmlns:svg="http://www.w3.org/2000/svg"><sodipodi:namedview
     id="namedview1"
     pagecolor="#ffffff"
     bordercolor="#000000"
     borderopacity="0.25"
     inkscape:showpageshadow="2"
     inkscape:pageopacity="0.0"
     inkscape:pagecheckerboard="0"
     inkscape:deskcolor="#d1d1d1"
     inkscape:document-units="mm"
     inkscape:zoom="0.96105813"
     inkscape:cx="265.85281"
     inkscape:cy="1165.9024"
     inkscape:window-width="1680"
     inkscape:window-height="1050"
     inkscape:window-x="0"
     inkscape:window-y="0"
     inkscape:window-maximized="0"
     inkscape:current-layer="layer1"><inkscape:page
       x="1.255557e-05"
       y="-5.888553e-06"
       width="39.852551"
       height="39.852558"
       id="page1"
       margin="0"
       bleed="0" /></sodipodi:namedview><defs
     id="defs1" /><g
     inkscape:label="Layer 1"
     inkscape:groupmode="layer"
     id="layer1"
     transform="translate(63.026226,-63.970792)"><path
       d="m -35.513828,64.254399 c 0,0 -3.793066,1.89654 -7.586133,1.89654 -3.793066,0 -7.586133,-1.89654 -7.586133,-1.89654 l 7.586133,18.288 z"
       fill="url(#red)"
       stroke="#870200"
       id="path5-5"
       style="fill:#ff0000;fill-opacity:1;stroke:#000000;stroke-width:0.270933" /><path
       d="m -51.634361,64.660799 c 0,0 -1.354666,4.064 -4.064,6.77334 -2.573866,2.57386 -6.637866,3.92853 -6.637866,3.92853 l 18.288,7.58613 z"
       fill="url(#white)"
       stroke="#bdbdbd"
       id="path6-9"
       style="fill:#ffffff;stroke-width:0.270933" /><path
       d="m -23.457294,91.483199 c 0,0 -1.896533,-3.79306 -1.896533,-7.58613 0,-3.79307 1.896533,-7.58613 1.896533,-7.58613 l -18.288,7.58613 z"
       fill="url(#red)"
       stroke="#870200"
       id="path3-20-9"
       style="fill:#ff0000;stroke:#000000;stroke-width:0.270933" /><path
       d="m -23.863694,75.362669 c 0,0 -4.064,-1.35467 -6.773333,-4.064 -2.573867,-2.57387 -3.928534,-6.63787 -3.928534,-6.63787 l -7.586133,18.288 z"
       fill="url(#white)"
       stroke="#bdbdbd"
       id="path4-9"
       style="fill:#ffffff;stroke-width:0.270933" /><path
       d="m -50.686094,103.53974 c 0,0 3.793067,-1.89654 7.586133,-1.89654 3.793067,0 7.586133,1.89654 7.586133,1.89654 l -7.586133,-18.288001 z"
       fill="url(#red)"
       stroke="#870200"
       id="path1-2-9"
       style="fill:#ff0000;fill-opacity:1;stroke:#000000;stroke-width:0.270933" /><path
       d="m -34.565561,103.13334 c 0,0 1.354667,-4.064001 4.064,-6.773341 2.573867,-2.57386 6.637867,-3.92853 6.637867,-3.92853 l -18.288,-7.58613 z"
       fill="url(#white)"
       stroke="#bdbdbd"
       id="path2-2"
       style="fill:#ffffff;stroke-width:0.270933" /><path
       d="m -62.742627,76.310939 c 0,0 1.896533,3.79306 1.896533,7.58613 0,3.79307 -1.896533,7.58613 -1.896533,7.58613 l 18.288,-7.58613 z"
       fill="url(#red)"
       stroke="#870200"
       id="path7-4"
       style="fill:#ff0000;fill-opacity:1;stroke:#000000;stroke-width:0.270933" /><path
       d="m -62.336227,92.431469 c 0,0 4.064,1.35467 6.773333,4.064 2.573867,2.57387 3.928533,6.637871 3.928533,6.637871 l 7.586134,-18.288001 z"
       fill="url(#white)"
       stroke="#bdbdbd"
       id="path8-0"
       style="fill:#ffffff;stroke-width:0.270933" /></g></svg>
