<?xml version="1.0" encoding="UTF-8" standalone="no"?>
<!-- Created with Inkscape (http://www.inkscape.org/) -->

<svg
   width="121.60243mm"
   height="59.477871mm"
   viewBox="0 0 121.60243 59.477871"
   version="1.1"
   id="svg1"
   xml:space="preserve"
   xmlns:inkscape="http://www.inkscape.org/namespaces/inkscape"
   xmlns:sodipodi="http://sodipodi.sourceforge.net/DTD/sodipodi-0.dtd"
   xmlns="http://www.w3.org/2000/svg"
   xmlns:svg="http://www.w3.org/2000/svg"><sodipodi:namedview
     id="namedview1"
     pagecolor="#ffffff"
     bordercolor="#000000"
     borderopacity="0.25"
     inkscape:showpageshadow="2"
     inkscape:pageopacity="0.0"
     inkscape:pagecheckerboard="0"
     inkscape:deskcolor="#d1d1d1"
     inkscape:document-units="mm"><inkscape:page
       x="0"
       y="0"
       width="121.60243"
       height="59.477871"
       id="page2"
       margin="0"
       bleed="0" /></sodipodi:namedview><defs
     id="defs1" /><g
     inkscape:label="Layer 1"
     inkscape:groupmode="layer"
     id="layer1"
     transform="translate(-20.70272,-128.50543)"><g
       style="stroke-width:2"
       id="g1"
       transform="matrix(0.26458333,0,0,0.26458333,32.089641,133.85544)"><rect
         style="fill:none;stroke:none;stroke-width:0.566929;stroke-linejoin:round;stroke-opacity:0.996078"
         id="rect2-3"
         width="459.59976"
         height="224.79825"
         x="-41.201336"
         y="-287.76782"
         inkscape:export-filename="vcat_logo_light.svg"
         inkscape:export-xdpi="96"
         inkscape:export-ydpi="96" /><rect
         style="fill:none;stroke:none;stroke-width:0.566929;stroke-linejoin:round;stroke-opacity:0.996078"
         id="rect2-3-3"
         width="459.59976"
         height="224.79825"
         x="-43.037178"
         y="-20.220539" /><rect
         style="fill:none;fill-opacity:1;stroke:none;stroke-width:0.984182;stroke-opacity:0.996078"
         id="rect8"
         width="401.56323"
         height="198.61394"
         x="-27.394741"
         y="-269.487" /><path
         d="m 103.94491,-243.2195 c 0,0 -14.335998,7.168 -28.671998,7.168 -14.336,0 -28.672,-7.168 -28.672,-7.168 l 28.672,69.12 z"
         fill="url(#red)"
         stroke="#870200"
         id="path5"
         style="fill:#ff0000;fill-opacity:1;stroke:#000000;stroke-width:1.024" /><path
         d="m 43.016912,-241.6835 c 0,0 -5.12,15.36 -15.36,25.6 -9.728,9.728 -25.0880001,14.848 -25.0880001,14.848 l 69.1200001,28.672 z"
         fill="url(#white)"
         stroke="#bdbdbd"
         id="path6"
         style="fill:#ffffff;stroke-width:1.024" /><path
         d="m 149.51291,-140.3075 c 0,0 -7.168,-14.336 -7.168,-28.672 0,-14.336 7.168,-28.672 7.168,-28.672 l -69.119998,28.672 z"
         fill="url(#red)"
         stroke="#870200"
         id="path3"
         style="fill:#ff0000;stroke:#000000;stroke-width:1.024" /><path
         d="m 147.97691,-201.2355 c 0,0 -15.36,-5.12 -25.6,-15.36 -9.728,-9.728 -14.848,-25.088 -14.848,-25.088 l -28.671998,69.12 z"
         fill="url(#white)"
         stroke="#bdbdbd"
         id="path4"
         style="fill:#ffffff;stroke-width:1.024" /><path
         d="m 46.600912,-94.739502 c 0,0 14.336,-7.167998 28.672,-7.167998 14.336,0 28.671998,7.167998 28.671998,7.167998 L 75.272912,-163.8595 Z"
         fill="url(#red)"
         stroke="#870200"
         id="path1"
         style="fill:#ff0000;fill-opacity:1;stroke:#000000;stroke-width:1.024" /><path
         d="m 107.52891,-96.275502 c 0,0 5.12,-15.359998 15.36,-25.599998 9.728,-9.728 25.088,-14.848 25.088,-14.848 l -69.119998,-28.672 z"
         fill="url(#white)"
         stroke="#bdbdbd"
         id="path2"
         style="fill:#ffffff;stroke-width:1.024" /><path
         d="m 1.0329119,-197.6515 c 0,0 7.168,14.336 7.168,28.672 0,14.336 -7.168,28.672 -7.168,28.672 l 69.1200001,-28.672 z"
         fill="url(#red)"
         stroke="#870200"
         id="path7"
         style="fill:#ff0000;fill-opacity:1;stroke:#000000;stroke-width:1.024" /><path
         d="m 2.5689119,-136.7235 c 0,0 15.3600001,5.12 25.6000001,15.36 9.728,9.728 14.848,25.087998 14.848,25.087998 l 28.672,-69.119998 z"
         fill="url(#white)"
         stroke="#bdbdbd"
         id="path8"
         style="fill:#ffffff;stroke-width:1.024" /><text
         xml:space="preserve"
         style="font-size:96px;line-height:1;font-family:Arial;-inkscape-font-specification:'Arial, Normal';text-align:center;writing-mode:lr-tb;direction:ltr;text-anchor:middle;fill:#1a1a1a;fill-opacity:1;stroke:#000000;stroke-width:1.13386;stroke-opacity:0.996078"
         x="274.16364"
         y="-134.34462"
         id="text8"><tspan
           id="tspan8"
           x="287.49957"
           y="-134.34462"
           style="font-style:normal;font-variant:normal;font-weight:normal;font-stretch:normal;font-size:96px;font-family:Helvetica;-inkscape-font-specification:Helvetica"><tspan
   style="font-style:normal;font-variant:normal;font-weight:normal;font-stretch:normal;font-family:'Nunito Sans';-inkscape-font-specification:'Nunito Sans'"
   id="tspan1">Vcat</tspan>  </tspan></text><rect
         style="fill:none;fill-opacity:1;stroke:none;stroke-width:0.984182;stroke-opacity:0.996078"
         id="rect8-4"
         width="401.56323"
         height="198.61394"
         x="-18.18523"
         y="-8.8048153" /><path
         d="m 113.15442,17.462679 c 0,0 -14.335999,7.168 -28.671999,7.168 -14.336,0 -28.672,-7.168 -28.672,-7.168 l 28.672,69.12 z"
         fill="url(#red)"
         stroke="#870200"
         id="path5-6"
         style="fill:#ff0000;fill-opacity:1;stroke:#ffffff;stroke-width:1.024;stroke-opacity:1" /><path
         d="m 52.226421,18.998679 c 0,0 -5.12,15.36 -15.360002,25.6 -9.728,9.728 -25.088,14.848 -25.088,14.848 l 69.120002,28.672 z"
         fill="url(#white)"
         stroke="#bdbdbd"
         id="path6-0"
         style="fill:#ffffff;stroke-width:1.024" /><path
         d="m 158.72242,120.37468 c 0,0 -7.168,-14.336 -7.168,-28.672001 0,-14.336 7.168,-28.672 7.168,-28.672 l -69.119999,28.672 z"
         fill="url(#red)"
         stroke="#870200"
         id="path3-3"
         style="fill:#ff0000;stroke:#ffffff;stroke-width:1.024;stroke-opacity:1" /><path
         d="m 157.18642,59.446679 c 0,0 -15.36,-5.12 -25.6,-15.36 -9.728,-9.728 -14.848,-25.088 -14.848,-25.088 l -28.671999,69.12 z"
         fill="url(#white)"
         stroke="#bdbdbd"
         id="path4-2"
         style="fill:#ffffff;stroke-width:1.024" /><path
         d="m 55.810421,165.94268 c 0,0 14.336,-7.168 28.672,-7.168 14.336,0 28.671999,7.168 28.671999,7.168 L 84.482421,96.822679 Z"
         fill="url(#red)"
         stroke="#870200"
         id="path1-6"
         style="fill:#ff0000;fill-opacity:1;stroke:#ffffff;stroke-width:1.024;stroke-opacity:1" /><path
         d="m 116.73842,164.40668 c 0,0 5.12,-15.36 15.36,-25.6 9.728,-9.728 25.088,-14.848 25.088,-14.848 L 88.066421,95.286679 Z"
         fill="url(#white)"
         stroke="#bdbdbd"
         id="path2-9"
         style="fill:#ffffff;stroke-width:1.024" /><path
         d="m 10.242419,63.030679 c 0,0 7.168,14.336 7.168,28.672 0,14.336001 -7.168,28.672001 -7.168,28.672001 L 79.362421,91.702679 Z"
         fill="url(#red)"
         stroke="#870200"
         id="path7-4"
         style="fill:#ff0000;fill-opacity:1;stroke:#ffffff;stroke-width:1.024;stroke-opacity:1" /><path
         d="m 11.778419,123.95868 c 0,0 15.36,5.12 25.6,15.36 9.728002,9.728 14.848002,25.088 14.848002,25.088 l 28.672,-69.120001 z"
         fill="url(#white)"
         stroke="#bdbdbd"
         id="path8-1"
         style="fill:#ffffff;stroke-width:1.024" /><text
         xml:space="preserve"
         style="font-size:96px;line-height:1;font-family:Arial;-inkscape-font-specification:'Arial, Normal';text-align:center;writing-mode:lr-tb;direction:ltr;text-anchor:middle;fill:#a5a5a5;fill-opacity:1;stroke:#a1a1a1;stroke-width:1.13386;stroke-opacity:0.996078"
         x="285.37314"
         y="122.33757"
         id="text8-3"><tspan
           id="tspan8-7"
           x="298.70908"
           y="122.33757"
           style="font-style:normal;font-variant:normal;font-weight:normal;font-stretch:normal;font-size:96px;font-family:Helvetica;-inkscape-font-specification:Helvetica;fill:#a5a5a5;fill-opacity:1;stroke:#a1a1a1;stroke-opacity:0.996078"><tspan
   style="font-style:normal;font-variant:normal;font-weight:normal;font-stretch:normal;font-family:'Nunito Sans';-inkscape-font-specification:'Nunito Sans';fill:#a5a5a5;fill-opacity:1;stroke:#a1a1a1;stroke-opacity:0.996078"
   id="tspan1-8">Vcat</tspan>  </tspan></text></g></g></svg>
